<svg width="128" height="128" viewBox="0 0 128 128" fill="none" xmlns="http://www.w3.org/2000/svg">
<path d="M103.467 64.5289H64V24.3305C64 10.5784 52.2667 0 39.4667 0H24.5333C10.6667 0 0 10.5784 0 24.3305V39.1405C0 52.8926 10.6667 63.4711 24.5333 63.4711H64V103.669C64 117.421 74.6667 128 88.5333 128H103.467C117.333 128 128 117.421 128 103.669V88.8595C128 76.1653 117.333 64.5289 103.467 64.5289ZM45.8667 47.6033H23.4667C19.2 47.6033 16 44.4297 16 40.1982V25.3884C16 21.157 19.2 17.9835 23.4667 17.9835H38.4C42.6667 17.9835 45.8667 21.157 45.8667 25.3884V47.6033ZM110.933 104.727C110.933 108.959 107.733 112.132 103.467 112.132H88.5333C84.2667 112.132 81.0667 108.959 81.0667 104.727V82.5123H103.467C107.733 82.5123 110.933 85.686 110.933 89.9174V104.727Z" fill="#020203"/>
</svg>
