<svg width="67" height="50" viewBox="0 0 67 50" fill="none" xmlns="http://www.w3.org/2000/svg">
<path d="M22.0239 5.03809V22.0703H18.2895V6.33422L19.1457 6.40724L12.8064 22.0886H9.327L2.98764 6.462L3.8256 6.37072V22.0886H0.00012207V5.05635H5.79299L11.7862 20.2265H10.3471L16.3404 5.05635H22.0239V5.03809Z" fill="#020203"/>
<path d="M48.1464 22.0709V5.03871H51.899V20.1176L50.7514 19.8985L61.4809 5.03871H66.4905V22.0709H62.7379V6.79123L63.8855 7.01028L53.0102 22.0709H48.1464ZM51.8626 0.000244141H54.923C55.1052 0.529649 55.3784 0.931268 55.7792 1.22335C56.1617 1.51544 56.6536 1.66147 57.2365 1.66147C57.8194 1.66147 58.3113 1.51544 58.6938 1.22335C59.0764 0.931268 59.3496 0.529649 59.5136 0.000244141H62.5922C62.2825 1.33288 61.6631 2.31867 60.7158 2.93935C59.7686 3.56003 58.6027 3.87037 57.2183 3.87037C55.852 3.87037 54.6862 3.56003 53.7207 2.93935C52.7916 2.30041 52.1541 1.33288 51.8626 0.000244141Z" fill="#020203"/>
<path d="M37.6014 4.47241H32.4826C28.7664 4.47241 25.7425 7.5028 25.7425 11.2269V15.3343C25.7425 19.0584 28.7664 22.0888 32.4826 22.0888H37.6014C41.3176 22.0888 44.3416 19.0584 44.3416 15.3343V11.2269C44.3416 7.5028 41.3176 4.47241 37.6014 4.47241ZM40.7893 14.5494C40.7893 16.8495 38.9313 18.7116 36.636 18.7116H33.4663C31.171 18.7116 29.3129 16.8495 29.3129 14.5494V12.0119C29.3129 9.71169 31.171 7.84965 33.4663 7.84965H36.6177C38.913 7.84965 40.7711 9.71169 40.7711 12.0119V14.5494H40.7893Z" fill="#020203"/>
<path d="M0.00012207 46.3098V29.2776H4.53604V43.1881L3.24267 42.4214L15.721 29.2958H20.5848L4.11707 46.3098H0.00012207ZM9.61846 37.9671L12.8974 35.4844L20.8763 46.2916H15.6664L9.61846 37.9671Z" fill="#020203"/>
<path d="M43.4269 49.7766V42.8943H46.6512L48.3089 42.9308H60.7326L61.6799 42.8943H66.3251V49.7766H62.6636V46.308H47.0884V49.7766H43.4269ZM47.1249 29.2576H63.3012V45.0667H59.421V30.8823L61.1698 32.6166H49.2198L50.8593 31.3752C50.9503 32.1419 51.005 32.8904 51.0414 33.6206C51.0779 34.3691 51.0961 35.0628 51.0961 35.7017C51.0961 37.5455 50.9503 39.1154 50.6589 40.3933C50.3674 41.6712 49.9302 42.6387 49.3473 43.2959C48.7644 43.9531 48.0357 44.2817 47.1795 44.2817L45.5765 42.9491C46.214 42.2188 46.7059 41.1966 47.0156 39.8639C47.3252 38.5313 47.4892 36.8883 47.4892 34.8985C47.4892 34.0222 47.4528 33.1095 47.3981 32.1419C47.3253 31.2109 47.2342 30.2434 47.1249 29.2576Z" fill="#020203"/>
<path d="M33.9423 29.2576H28.8235C25.1073 29.2576 22.0833 32.288 22.0833 36.012V40.1195C22.0833 43.8436 25.1073 46.874 28.8235 46.874H33.9423C37.6585 46.874 40.6824 43.8436 40.6824 40.1195V36.012C40.6642 32.288 37.6585 29.2576 33.9423 29.2576ZM37.112 39.3345C37.112 41.6347 35.2539 43.4967 32.9586 43.4967H29.7889C27.4937 43.4967 25.6356 41.6347 25.6356 39.3345V36.797C25.6356 34.4969 27.4937 32.6348 29.7889 32.6348H32.9586C35.2539 32.6348 37.112 34.4969 37.112 36.797V39.3345Z" fill="#020203"/>
</svg>
